<svg width="13" height="13" viewBox="0 0 8 11" fill="none" xmlns="http://www.w3.org/2000/svg">
    <path
        d="M2.5273 0.617188H3.52615V3.0591C4.53453 2.71251 5.55202 2.34819 6.56745 1.99844V2.7834C5.55078 3.13 4.54199 3.4825 3.52615 3.82909V4.23358C4.54157 3.88384 5.55907 3.51952 6.56745 3.17293V3.95198C5.55948 4.30842 4.53992 4.65304 3.52615 5.00357V9.05124C4.20571 8.96784 4.85072 8.71766 5.39771 8.32534C5.9447 7.93302 6.37482 7.41206 6.64575 6.81374L6.65569 6.78932C6.86124 6.3309 6.9664 5.83747 6.96475 5.33914V5.33599H8.0013V5.48565C7.97979 6.17776 7.79892 6.85696 7.47143 7.47542L7.48468 7.44824C7.2068 7.97241 6.83117 8.44428 6.37605 8.84092L6.37232 8.84407C5.46582 9.63555 4.27926 10.0738 3.04847 10.0717C2.86494 10.0717 2.6839 10.0623 2.50534 10.0438L2.5273 10.0457V5.35096C1.90338 5.5597 1.28857 5.7775 0.667969 5.989V5.2328C1.28982 5.01696 1.91332 4.8031 2.5273 4.57978V4.17844C1.90876 4.37931 1.28857 4.6046 0.667969 4.81373V4.06147C1.28567 3.84091 1.91456 3.63059 2.5273 3.4053V0.617188Z"
        fill="white" />
</svg>