<svg width="23" height="23" viewBox="0 0 23 23" fill="none" xmlns="http://www.w3.org/2000/svg">
<path d="M21.731 0H1.26903C0.568165 0 0 0.568165 0 1.26903V21.731C0 22.4318 0.568165 23 1.26903 23H21.731C22.4318 23 23 22.4318 23 21.731V1.26903C23 0.568165 22.4318 0 21.731 0Z" fill="#3D5A98"/>
<path d="M15.8655 23.0002V14.0936H18.8544L19.3014 10.6227H15.8655V8.40727C15.8655 7.40254 16.1453 6.71653 17.5854 6.71653H19.4238V3.60711C18.5336 3.51432 17.6389 3.47021 16.7439 3.47496C14.097 3.47496 12.2741 5.08797 12.2741 8.06329V10.6227H9.28516V14.0936H12.2741V23.0002H15.8655Z" fill="white"/>
</svg>
