<svg width="24" height="15" viewBox="0 0 24 15" fill="none" xmlns="http://www.w3.org/2000/svg">
<path d="M1 10.25C0.585786 10.25 0.25 10.5858 0.25 11C0.25 11.4142 0.585786 11.75 1 11.75L1 10.25ZM13.5 10.25L1 10.25L1 11.75L13.5 11.75V10.25Z" fill="#66AE7B"/>
<path d="M23 11.75C23.4142 11.75 23.75 11.4142 23.75 11C23.75 10.5858 23.4142 10.25 23 10.25L23 11.75ZM23 10.25L19 10.25L19 11.75L23 11.75L23 10.25Z" fill="#66AE7B"/>
<path d="M23 3.75C23.4142 3.75 23.75 3.41421 23.75 3C23.75 2.58579 23.4142 2.25 23 2.25L23 3.75ZM23 2.25L10 2.25L10 3.75L23 3.75L23 2.25Z" fill="#66AE7B"/>
<path d="M1 2.25C0.585786 2.25 0.25 2.58579 0.25 3C0.25 3.41421 0.585786 3.75 1 3.75L1 2.25ZM6 2.25L1 2.25L1 3.75L6 3.75L6 2.25Z" fill="#66AE7B"/>
<path d="M11 3C11 4.65686 9.65686 6 8 6C6.34314 6 5 4.65686 5 3C5 1.34314 6.34314 0 8 0C9.65686 0 11 1.34314 11 3Z" fill="#66AE7B"/>
<path d="M19.2341 11.1171C19.2341 12.8386 17.8386 14.2341 16.1171 14.2341C14.3955 14.2341 13 12.8386 13 11.1171C13 9.39555 14.3955 8 16.1171 8C17.8386 8 19.2341 9.39555 19.2341 11.1171Z" fill="#66AE7B"/>
</svg>
