<svg width="201" height="192" viewBox="0 0 201 192" fill="none" xmlns="http://www.w3.org/2000/svg">
<path d="M144.305 151.863C135.684 158.992 122.421 172.255 113.965 178.389C106.007 184.192 94.8995 185.352 86.1126 178.223C81.139 174.244 76.3311 170.1 70.1969 167.779C65.5548 165.955 60.7469 165.292 55.7732 164.96C49.8048 164.629 43.8363 165.623 37.8679 164.297C23.1127 160.815 12.0048 146.06 13.1653 131.802C13.4969 126.497 15.9837 121.855 17.9732 117.047C21.6206 107.763 22.6153 98.3128 20.2942 88.6971C18.3048 80.4076 17.8074 71.9523 19.7969 63.8286C22.2837 54.3787 29.4127 48.576 38.5311 45.7576C50.1363 42.276 59.5863 36.6392 65.389 25.1997C69.0363 17.7392 75.6679 12.1024 83.46 9.11815C92.7442 5.63657 100.536 9.61552 107.665 15.4182C112.805 19.7287 118.276 23.5418 124.576 25.8629C129.384 27.6866 134.192 27.6866 138.999 26.3602C151.599 22.8787 163.039 25.8629 173.318 33.1576C180.613 38.4629 185.918 48.576 180.115 59.6839C175.473 68.8023 171.992 78.2523 173.484 88.6971C174.313 94.6655 176.136 100.634 176.799 106.602C178.292 121.026 176.136 134.621 163.868 144.236C158.231 148.713 151.102 150.039 144.305 151.863C141.984 152.36 141.502 150.992 141.502 149.5C134.354 142.955 97.002 111.837 97.002 104.376C97.002 95.0922 142.149 107.929 142.149 98.6444C142.149 97.1523 142.647 95.6602 141.486 94.4997C138.502 92.8418 135.186 93.6707 132.202 93.8365C129.052 94.0023 128.389 92.8418 128.555 90.0234C128.721 83.0602 128.886 76.0971 128.555 69.1339C128.057 57.8602 107.115 89.3076 97.002 84.4997C84.2362 78.3655 119.244 173 97.002 128C115.849 166.131 77.6574 51.0629 77.3258 51.3944C75.9995 51.726 84.9941 63.8354 83.502 64.6643C84.3309 65.9906 84.3309 46.1734 83.502 47.4997C82.8388 48.6603 106.007 82.8418 107.665 84.4997C107.499 84.9971 72.3521 60.3471 72.1863 60.8444C69.5337 62.5023 135.002 63.8471 135.002 66.4997C134.836 72.6339 156.502 118.366 156.502 124.5C156.502 130.302 107.305 100.806 101.502 101.137C158.439 143.958 59.089 90.6865 58.0942 93.6707C73.502 90.0234 82.6677 128.168 82.502 128.5C81.673 129.163 57.2653 96.1576 57.2653 97.1523C128.002 92.9997 57.2653 132.963 57.2653 150.868C54.002 148.5 76.002 121.5 78.0145 123.5C80.502 123.5 60.7469 154.018 62.0732 154.184C61.0784 154.515 91.3369 100.543 90.3421 100.875" fill="#F5F5FA"/>
<path d="M63.5642 182.036C63.5642 183.528 62.5695 184.191 61.2431 184.191C57.2642 184.191 54.7774 186.015 53.6168 189.828C53.2852 190.989 52.6221 192.149 51.13 191.983C49.4721 191.818 49.3063 190.325 49.1405 188.999C49.1405 185.352 46.9853 183.197 43.6695 181.87C42.3431 181.373 41.0168 181.041 41.3484 179.218C41.68 177.726 42.8405 177.56 44.1668 177.56C47.98 177.56 50.301 175.239 51.4616 171.757C51.9589 170.597 52.2905 169.436 53.9484 169.602C55.2747 169.768 55.6063 170.762 55.6063 171.923C55.6063 176.233 57.7616 178.554 61.7405 179.715C62.7352 180.544 63.3984 180.875 63.5642 182.036Z" fill="#66AE7B"/>
<path d="M123.577 0C125.069 0 125.401 0.828942 125.401 1.98947C125.566 5.63683 127.059 8.12369 130.872 8.78684C132.032 8.95263 132.695 9.94736 132.53 11.1079C132.53 12.6 131.369 12.7658 130.209 12.7658C126.893 12.9316 124.737 14.4237 123.577 17.5737C123.245 18.7342 122.416 19.8947 121.09 19.7289C119.764 19.5632 119.764 18.2368 119.598 17.2421C119.432 13.9263 117.277 11.9368 114.459 10.7763C113.464 10.4447 112.303 10.1132 112.469 8.78684C112.635 7.29474 113.795 7.29474 114.79 7.29474C117.94 6.96316 120.261 5.47105 121.256 2.32105C121.753 1.16053 122.251 0.165789 123.577 0Z" fill="#66AE7B"/>
<path d="M200.502 81.5689C200.171 83.061 199.673 84.0557 198.181 84.0557C194.7 83.8899 192.544 85.382 191.881 88.8636C191.715 89.8583 190.887 90.5215 189.892 90.3557C188.565 90.1899 187.902 89.361 188.068 88.2005C188.4 85.0505 186.576 83.3926 183.923 82.0662C182.929 81.5689 181.768 81.2373 181.934 79.911C182.1 78.5847 183.26 78.5847 184.421 78.4189C187.405 78.2531 189.229 76.5952 190.223 73.7768C190.555 72.782 190.887 71.9531 192.047 72.1189C192.71 72.1189 193.373 72.4505 193.539 73.2794C193.871 77.0926 195.86 79.5794 199.839 80.5741C200.005 80.5741 200.171 81.2373 200.502 81.5689Z" fill="#B4D5AE"/>
<path d="M53.9462 24.8678C54.112 25.8626 53.6146 26.3599 52.7857 26.3599C49.9673 26.6915 48.1436 28.1836 46.9831 30.6705C46.6515 31.4994 46.1541 31.9968 45.1594 31.831C44.3304 31.6652 43.6673 31.002 43.6673 30.1731C43.8331 27.5204 42.341 26.0283 40.0199 25.0336C39.3567 24.702 38.8594 24.3705 38.8594 23.5415C38.8594 22.5468 39.6883 22.381 40.5173 22.2152C42.8383 21.7178 44.662 20.7231 45.3252 18.0705C45.491 17.2415 46.3199 16.7441 47.1488 16.7441C48.1436 16.9099 48.1436 17.7389 48.3094 18.5678C48.8067 21.0547 50.1331 22.8784 52.6199 23.8731C53.4488 24.2047 53.9462 24.3705 53.9462 24.8678Z" fill="#B4D5AE"/>
<path d="M145.628 177.56C143.473 173.913 143.141 170.099 138.996 169.602C138.333 169.436 138.167 168.607 138.333 167.944C138.499 167.281 138.996 166.784 139.66 166.784C142.312 166.618 144.302 165.789 144.965 162.97C145.131 162.142 145.96 161.313 147.12 161.478C147.949 161.644 148.281 162.639 148.446 163.302C148.944 165.789 149.11 168.276 152.591 168.607C153.917 168.773 153.917 171.094 152.591 171.26C148.612 171.26 147.12 173.747 145.628 177.56Z" fill="#FF9200"/>
<path d="M7.0286 102.623C9.01807 105.276 11.1733 107.763 12.997 110.415C13.3286 110.913 12.1681 111.244 11.5049 111.244C9.51544 111.576 8.02334 112.239 7.52597 114.56C7.36018 115.389 6.69702 115.886 5.86807 115.886C4.87334 115.886 4.54176 115.057 4.54176 114.228C4.54176 112.073 3.21545 110.913 1.55755 110.084C0.728604 109.752 -0.266134 109.42 0.0654444 108.094C0.231234 107.099 1.22597 107.099 2.05492 107.099C4.21018 106.934 5.37071 105.607 6.19965 103.949C6.19965 103.452 6.36544 102.789 7.0286 102.623Z" fill="#FF9200"/>
<path d="M72.1819 60.8438C70.3583 68.6359 70.8556 76.7595 70.8556 84.7174C70.8556 93.6701 70.8556 93.6701 62.0688 93.6701C60.7425 93.6701 59.4162 93.6701 58.0898 93.8358C59.0846 90.6858 61.7372 92.3437 63.5609 92.3437C69.3635 92.1779 69.3635 92.1779 69.3635 86.3753C69.3635 80.2411 69.3635 74.1069 69.3635 67.9727C69.3635 65.3201 69.5293 62.5016 72.1819 60.8438Z" fill="white"/>
<path d="M57.9267 94.5C57.9267 114.229 58.0925 133.958 58.0925 153.687C57.0977 153.024 57.2635 151.863 57.2635 150.703C57.2635 132.797 57.2635 114.892 57.2635 96.9868C57.2635 96.1579 57.0977 95.3289 57.9267 94.5Z" fill="white"/>
<path d="M128.264 137.134L85.5111 112.562C82.3416 110.736 79.7734 105.856 79.7734 101.656V72.7416C79.7734 68.5414 82.3416 66.6544 85.5111 68.4298L128.264 93.0018C131.433 94.828 134.001 99.7079 134.001 103.908V132.822C134.001 137.022 131.433 138.95 128.264 137.134Z" fill="#E8A30A"/>
<path d="M113.148 148.66L132.246 137.287L120.669 111.143L102.691 119.989L113.148 148.66Z" fill="#E8A30A"/>
<path d="M63.332 79.1337L82.1757 67.9434L86.8943 102.782L63.332 79.1337Z" fill="#E8A30A"/>
<path d="M109.531 148.295L66.7275 123.723C63.558 121.907 61 117.027 61 112.826V83.892C61 79.6918 63.558 77.8048 66.7275 79.5802L109.531 104.162C112.69 105.978 115.258 110.858 115.258 115.058V143.973C115.258 148.173 112.69 150.111 109.531 148.295Z" fill="#F9CB07"/>
<path fill-rule="evenodd" clip-rule="evenodd" d="M90.8564 51.8498C90.3058 52.1674 89.1307 53.3301 89.1307 56.7731V78.7378H79.5859V56.7731C79.5859 51.2983 81.5549 46.1963 86.0872 43.5819C90.6092 40.9734 96.013 41.8065 100.762 44.509L100.77 44.5136L100.779 44.5183C105.553 47.2603 109.609 51.7799 112.46 56.6955C115.311 61.6102 117.218 67.3695 117.218 72.8636V94.8283H107.673V72.8636C107.673 69.4501 106.436 65.3329 104.204 61.4845C101.974 57.6406 99.0115 54.5128 96.0334 52.8C93.0323 51.0947 91.4167 51.5265 90.8564 51.8498Z" fill="#CC8B09"/>
<path d="M84.1644 82.4712C87.6034 82.4712 90.3912 80.8678 90.3912 78.8899C90.3912 76.912 87.6034 75.3086 84.1644 75.3086C80.7254 75.3086 77.9375 76.912 77.9375 78.8899C77.9375 80.8678 80.7254 82.4712 84.1644 82.4712Z" fill="#CC8B09"/>
<path d="M112.446 97.4263C115.885 97.4263 118.672 95.8229 118.672 93.845C118.672 91.8671 115.885 90.2637 112.446 90.2637C109.007 90.2637 106.219 91.8671 106.219 93.845C106.219 95.8229 109.007 97.4263 112.446 97.4263Z" fill="#CC8B09"/>
</svg>
