<svg width="56" height="81" viewBox="0 0 56 81" fill="none" xmlns="http://www.w3.org/2000/svg">
<path d="M51.1692 71.3334L19.2247 52.9732C16.8565 51.6087 14.9375 47.9625 14.9375 44.8241V23.2195C14.9375 20.0811 16.8565 18.6711 19.2247 19.9977L51.1692 38.3579C53.5374 39.7224 55.4564 43.3686 55.4564 46.507V68.1116C55.4564 71.25 53.5374 72.6903 51.1692 71.3334Z" fill="#E8A30A"/>
<path d="M39.8754 79.947L54.1457 71.4492L45.4952 51.9141L32.0625 58.5243L39.8754 79.947Z" fill="#E8A30A"/>
<path d="M2.65234 27.9961L16.7323 19.6348L20.258 45.6664L2.65234 27.9961Z" fill="#E8A30A"/>
<path d="M37.1723 79.673L5.18974 61.3128C2.8215 59.9559 0.910156 56.3097 0.910156 53.1713V31.5515C0.910156 28.4131 2.8215 27.0032 5.18974 28.3298L37.1723 46.6975C39.5329 48.0544 41.4519 51.7007 41.4519 54.839V76.4437C41.4519 79.582 39.5329 81.0299 37.1723 79.673Z" fill="#F9CB07"/>
<path fill-rule="evenodd" clip-rule="evenodd" d="M23.2181 7.60971C22.8067 7.84702 21.9287 8.71585 21.9287 11.2884V27.7003H14.7969V11.2884C14.7969 7.19764 16.2681 3.38547 19.6546 1.432C23.0335 -0.517057 27.0711 0.105406 30.6197 2.12469L30.6258 2.12817L30.6319 2.13167C34.1996 4.1805 37.23 7.55752 39.3605 11.2305C41.4905 14.9027 42.9154 19.206 42.9154 23.3112V39.7231H35.7835V23.3112C35.7835 20.7606 34.8592 17.6843 33.1913 14.8088C31.5253 11.9366 29.3116 9.59954 27.0864 8.31973C24.844 7.04553 23.6368 7.3682 23.2181 7.60971Z" fill="#CC8B09"/>
<path d="M18.2191 30.4886C20.7887 30.4886 22.8718 29.2905 22.8718 27.8127C22.8718 26.3348 20.7887 25.1367 18.2191 25.1367C15.6495 25.1367 13.5664 26.3348 13.5664 27.8127C13.5664 29.2905 15.6495 30.4886 18.2191 30.4886Z" fill="#CC8B09"/>
<path d="M39.3519 41.6644C41.9215 41.6644 44.0046 40.4663 44.0046 38.9884C44.0046 37.5106 41.9215 36.3125 39.3519 36.3125C36.7823 36.3125 34.6992 37.5106 34.6992 38.9884C34.6992 40.4663 36.7823 41.6644 39.3519 41.6644Z" fill="#CC8B09"/>
</svg>
